<svg width="308" height="52" viewBox="0 0 308 52" fill="none" xmlns="http://www.w3.org/2000/svg">
<path d="M294.675 23.3848C294.675 24.0509 295.108 24.6004 295.974 25.0334C296.873 25.433 297.955 25.7994 299.221 26.1324C300.487 26.4322 301.752 26.8319 303.018 27.3314C304.283 27.7977 305.349 28.597 306.215 29.7294C307.114 30.8618 307.564 32.2773 307.564 33.9758C307.564 36.5404 306.598 38.522 304.666 39.9208C302.768 41.2864 300.387 41.9691 297.522 41.9691C292.393 41.9691 288.896 39.9875 287.031 36.0241L292.627 32.8768C293.359 35.0416 294.991 36.124 297.522 36.124C299.821 36.124 300.97 35.408 300.97 33.9758C300.97 33.3097 300.52 32.7769 299.621 32.3772C298.755 31.9442 297.689 31.5612 296.423 31.2282C295.158 30.8951 293.892 30.4788 292.627 29.9792C291.361 29.4796 290.279 28.697 289.379 27.6312C288.513 26.5321 288.08 25.1666 288.08 23.5346C288.08 21.07 288.98 19.1383 290.778 17.7395C292.61 16.3074 294.875 15.5913 297.572 15.5913C299.604 15.5913 301.452 16.0576 303.118 16.9901C304.783 17.8894 306.099 19.1883 307.064 20.8869L301.569 23.8843C300.77 22.1858 299.437 21.3365 297.572 21.3365C296.74 21.3365 296.04 21.5197 295.474 21.886C294.941 22.2524 294.675 22.752 294.675 23.3848Z" fill="white"/>
<path d="M283.144 20.5877C283.743 18.9891 284.726 17.7901 286.091 16.9907C287.49 16.1914 289.039 15.7917 290.737 15.7917V22.9857C288.772 22.7526 287.007 23.1522 285.442 24.1847C283.91 25.2172 283.144 26.9324 283.144 29.3304V41.2703H276.699V16.2913H283.144V20.5877Z" fill="white"/>
<path d="M258.112 31.428C258.977 34.5587 261.325 36.124 265.156 36.124C267.62 36.124 269.485 35.2914 270.751 33.6261L275.947 36.6236C273.482 40.1873 269.852 41.9691 265.056 41.9691C260.926 41.9691 257.612 40.7202 255.114 38.2223C252.616 35.7244 251.367 32.577 251.367 28.7802C251.367 25.0167 252.599 21.886 255.064 19.3881C257.529 16.8569 260.693 15.5913 264.556 15.5913C268.22 15.5913 271.234 16.8569 273.598 19.3881C275.996 21.9193 277.195 25.05 277.195 28.7802C277.195 29.6128 277.112 30.4954 276.946 31.428H258.112ZM258.012 26.4322H270.751C270.385 24.7336 269.618 23.468 268.453 22.6354C267.32 21.8027 266.022 21.3864 264.556 21.3864C262.824 21.3864 261.392 21.8361 260.26 22.7353C259.127 23.6012 258.378 24.8335 258.012 26.4322Z" fill="white"/>
<path d="M242.716 15.5913C245.447 15.5913 247.696 16.5072 249.461 18.339C251.259 20.1708 252.159 22.702 252.159 25.9326V41.2697H245.714V26.7319C245.714 25.0667 245.264 23.8011 244.365 22.9351C243.466 22.0359 242.267 21.5863 240.768 21.5863C239.103 21.5863 237.771 22.1025 236.771 23.135C235.772 24.1674 235.273 25.7161 235.273 27.7811V41.2697H228.828V16.2907H235.273V19.0884C236.838 16.757 239.319 15.5913 242.716 15.5913Z" fill="white"/>
<path d="M221.687 16.2907H227.981V40.0707C227.981 43.9341 226.699 46.8817 224.135 48.9133C221.603 50.9449 218.539 51.9607 214.942 51.9607C212.245 51.9607 209.863 51.4445 207.798 50.412C205.767 49.3795 204.201 47.8642 203.102 45.8658L208.598 42.7185C209.863 45.0499 212.045 46.2155 215.142 46.2155C217.174 46.2155 218.773 45.6827 219.938 44.6169C221.104 43.5511 221.687 42.0357 221.687 40.0707V37.373C219.788 39.9042 217.124 41.1698 213.693 41.1698C210.163 41.1698 207.199 39.9375 204.801 37.4729C202.436 34.975 201.254 31.9442 201.254 28.3805C201.254 24.8502 202.453 21.8361 204.851 19.3382C207.249 16.8403 210.196 15.5913 213.693 15.5913C217.124 15.5913 219.788 16.8569 221.687 19.3881V16.2907ZM209.647 33.3264C210.979 34.592 212.661 35.2248 214.693 35.2248C216.724 35.2248 218.39 34.592 219.688 33.3264C221.021 32.0275 221.687 30.3789 221.687 28.3805C221.687 26.4155 221.021 24.8002 219.688 23.5346C218.39 22.2357 216.724 21.5863 214.693 21.5863C212.661 21.5863 210.979 22.2357 209.647 23.5346C208.348 24.8002 207.698 26.4155 207.698 28.3805C207.698 30.3789 208.348 32.0275 209.647 33.3264Z" fill="white"/>
<path d="M195.207 41.2702V16.2913H201.652V41.2702H195.207Z" fill="white"/>
<path d="M195.463 13.0209L192.954 0.584473L203.668 7.06397L198.494 8.47482L195.463 13.0209Z" fill="white"/>
<path d="M183.167 23.3848C183.167 24.0509 183.6 24.6004 184.466 25.0334C185.365 25.433 186.448 25.7994 187.713 26.1324C188.979 26.4322 190.244 26.8319 191.51 27.3314C192.776 27.7977 193.841 28.597 194.707 29.7294C195.607 30.8618 196.056 32.2773 196.056 33.9758C196.056 36.5404 195.09 38.522 193.159 39.9208C191.26 41.2864 188.879 41.9691 186.015 41.9691C180.886 41.9691 177.389 39.9875 175.523 36.0241L181.119 32.8768C181.851 35.0416 183.483 36.124 186.015 36.124C188.313 36.124 189.462 35.408 189.462 33.9758C189.462 33.3097 189.012 32.7769 188.113 32.3772C187.247 31.9442 186.181 31.5612 184.916 31.2282C183.65 30.8951 182.384 30.4788 181.119 29.9792C179.853 29.4796 178.771 28.697 177.871 27.6312C177.006 26.5321 176.573 25.1666 176.573 23.5346C176.573 21.07 177.472 19.1383 179.27 17.7395C181.102 16.3074 183.367 15.5913 186.065 15.5913C188.096 15.5913 189.945 16.0576 191.61 16.9901C193.275 17.8894 194.591 19.1883 195.557 20.8869L190.061 23.8843C189.262 22.1858 187.93 21.3365 186.065 21.3365C185.232 21.3365 184.533 21.5197 183.966 21.886C183.433 22.2524 183.167 22.752 183.167 23.3848Z" fill="white"/>
<path d="M159.612 31.428C160.477 34.5587 162.825 36.124 166.656 36.124C169.12 36.124 170.985 35.2914 172.251 33.6261L177.447 36.6236C174.982 40.1873 171.352 41.9691 166.556 41.9691C162.426 41.9691 159.112 40.7202 156.614 38.2223C154.116 35.7244 152.867 32.577 152.867 28.7802C152.867 25.0167 154.099 21.886 156.564 19.3881C159.029 16.8569 162.193 15.5913 166.056 15.5913C169.72 15.5913 172.734 16.8569 175.098 19.3881C177.496 21.9193 178.695 25.05 178.695 28.7802C178.695 29.6128 178.612 30.4954 178.446 31.428H159.612ZM159.512 26.4322H172.251C171.885 24.7336 171.118 23.468 169.953 22.6354C168.82 21.8027 167.522 21.3864 166.056 21.3864C164.324 21.3864 162.892 21.8361 161.76 22.7353C160.627 23.6012 159.878 24.8335 159.512 26.4322Z" fill="white"/>
<path d="M146.826 6.29956H153.27V41.2701H146.826V38.3226C144.928 40.7539 142.23 41.9696 138.733 41.9696C135.369 41.9696 132.488 40.704 130.09 38.1728C127.725 35.6082 126.543 32.4775 126.543 28.7807C126.543 25.0838 127.725 21.9697 130.09 19.4385C132.488 16.874 135.369 15.5917 138.733 15.5917C142.23 15.5917 144.928 16.8074 146.826 19.2387V6.29956ZM134.936 33.8764C136.268 35.1753 137.933 35.8247 139.932 35.8247C141.93 35.8247 143.579 35.1753 144.878 33.8764C146.176 32.5442 146.826 30.8456 146.826 28.7807C146.826 26.7157 146.176 25.0338 144.878 23.7349C143.579 22.4027 141.93 21.7366 139.932 21.7366C137.933 21.7366 136.268 22.4027 134.936 23.7349C133.637 25.0338 132.988 26.7157 132.988 28.7807C132.988 30.8456 133.637 32.5442 134.936 33.8764Z" fill="white"/>
<path d="M114.207 41.9697C109.844 41.9697 106.414 40.3211 103.916 37.0239C101.451 33.6934 100.219 29.2804 100.219 23.785C100.219 18.2897 101.451 13.8934 103.916 10.5961C106.414 7.26561 109.844 5.60034 114.207 5.60034C118.603 5.60034 122.034 7.26561 124.498 10.5961C126.963 13.8934 128.195 18.2897 128.195 23.785C128.195 29.2804 126.963 33.6934 124.498 37.0239C122.034 40.3211 118.603 41.9697 114.207 41.9697ZM108.911 32.3279C110.11 34.2596 111.876 35.2254 114.207 35.2254C116.538 35.2254 118.304 34.2429 119.503 32.2779C120.735 30.3129 121.351 27.4819 121.351 23.785C121.351 20.0548 120.735 17.2072 119.503 15.2422C118.304 13.2772 116.538 12.2947 114.207 12.2947C111.876 12.2947 110.11 13.2772 108.911 15.2422C107.712 17.2072 107.113 20.0548 107.113 23.785C107.113 27.5152 107.712 30.3628 108.911 32.3279Z" fill="white"/>
<path d="M87.7343 41.9697C83.3713 41.9697 79.9409 40.3211 77.443 37.0239C74.9784 33.6934 73.7461 29.2804 73.7461 23.785C73.7461 18.2897 74.9784 13.8934 77.443 10.5961C79.9409 7.26561 83.3713 5.60034 87.7343 5.60034C92.1306 5.60034 95.5611 7.26561 98.0257 10.5961C100.49 13.8934 101.723 18.2897 101.723 23.785C101.723 29.2804 100.49 33.6934 98.0257 37.0239C95.5611 40.3211 92.1306 41.9697 87.7343 41.9697ZM82.4388 32.3279C83.6378 34.2596 85.403 35.2254 87.7343 35.2254C90.0657 35.2254 91.8309 34.2429 93.0299 32.2779C94.2622 30.3129 94.8783 27.4819 94.8783 23.785C94.8783 20.0548 94.2622 17.2072 93.0299 15.2422C91.8309 13.2772 90.0657 12.2947 87.7343 12.2947C85.403 12.2947 83.6378 13.2772 82.4388 15.2422C81.2398 17.2072 80.6403 20.0548 80.6403 23.785C80.6403 27.5152 81.2398 30.3628 82.4388 32.3279Z" fill="white"/>
<path d="M55.3815 15.5918C58.7454 15.5918 61.6096 16.8741 63.9743 19.4386C66.3723 21.9698 67.5713 25.0838 67.5713 28.7807C67.5713 32.4776 66.3723 35.6083 63.9743 38.1728C61.6096 40.704 58.7454 41.9696 55.3815 41.9696C51.8845 41.9696 49.1867 40.754 47.2883 38.3227V51.2618H40.8438V16.2912H47.2883V19.2387C49.1867 16.8074 51.8845 15.5918 55.3815 15.5918ZM49.2367 33.8764C50.5356 35.1753 52.1842 35.8248 54.1825 35.8248C56.1808 35.8248 57.8295 35.1753 59.1284 33.8764C60.4606 32.5442 61.1267 30.8456 61.1267 28.7807C61.1267 26.7158 60.4606 25.0339 59.1284 23.7349C57.8295 22.4027 56.1808 21.7366 54.1825 21.7366C52.1842 21.7366 50.5356 22.4027 49.2367 23.7349C47.9378 25.0339 47.2883 26.7158 47.2883 28.7807C47.2883 30.8456 47.9378 32.5442 49.2367 33.8764Z" fill="white"/>
<path d="M37.4638 38.1728C34.8993 40.704 31.7686 41.9696 28.0717 41.9696C24.3748 41.9696 21.2441 40.704 18.6796 38.1728C16.1484 35.6083 14.8828 32.4776 14.8828 28.7807C14.8828 25.0838 16.1484 21.9698 18.6796 19.4386C21.2441 16.8741 24.3748 15.5918 28.0717 15.5918C31.7686 15.5918 34.8993 16.8741 37.4638 19.4386C40.0283 21.9698 41.3106 25.0838 41.3106 28.7807C41.3106 32.4776 40.0283 35.6083 37.4638 38.1728ZM23.2258 33.7265C24.5247 35.0255 26.14 35.6749 28.0717 35.6749C30.0034 35.6749 31.6187 35.0255 32.9176 33.7265C34.2165 32.4276 34.866 30.779 34.866 28.7807C34.866 26.7824 34.2165 25.1338 32.9176 23.8349C31.6187 22.536 30.0034 21.8865 28.0717 21.8865C26.14 21.8865 24.5247 22.536 23.2258 23.8349C21.9602 25.1338 21.3274 26.7824 21.3274 28.7807C21.3274 30.779 21.9602 32.4276 23.2258 33.7265Z" fill="white"/>
<path d="M67.4149 6.29956H73.4099V41.2701H66.5157V13.5934L59.9212 15.4419L58.2227 9.54683L67.4149 6.29956Z" fill="white"/>
<path d="M17.4127 22.486H11.7675V32.8773C11.7675 33.7432 11.984 34.376 12.4169 34.7757C12.8499 35.1754 13.4827 35.4085 14.3153 35.4751C15.148 35.5084 16.1804 35.4918 17.4127 35.4251V41.2702C12.9831 41.7698 9.85243 41.3535 8.02064 40.0213C6.22215 38.6891 5.32291 36.3077 5.32291 32.8773V22.486H0.976562V16.2912H5.32291V11.2455L11.7675 9.29712V16.2912H17.4127V22.486Z" fill="white"/>
</svg>
